<svg width="64" height="64" viewBox="0 0 64 64" fill="none" xmlns="http://www.w3.org/2000/svg">
<path d="M32 53C43.598 53 53 43.598 53 32C53 20.402 43.598 11 32 11C20.402 11 11 20.402 11 32C11 43.598 20.402 53 32 53Z" fill="#3F7DFF"/>
<path d="M22.7305 43.5503C22.7305 42.3321 22.9706 41.1258 23.4371 40.0005C23.9035 38.8752 24.5873 37.8531 25.4491 36.9922C26.311 36.1313 27.3341 35.4487 28.4599 34.9834C29.5858 34.5181 30.7923 34.279 32.0105 34.2803V34.2803C34.469 34.2803 36.8269 35.2571 38.5654 36.9956C40.3038 38.7341 41.2805 41.0917 41.2805 43.5503" stroke="white" stroke-miterlimit="10" stroke-linecap="round"/>
<path d="M31.9996 30.75C34.8439 30.75 37.1496 28.4444 37.1496 25.6001C37.1496 22.7558 34.8439 20.4502 31.9996 20.4502C29.1554 20.4502 26.8496 22.7558 26.8496 25.6001C26.8496 28.4444 29.1554 30.75 31.9996 30.75Z" stroke="white" stroke-miterlimit="10" stroke-linecap="round"/>
</svg>
