<svg width="64" height="64" viewBox="0 0 64 64" fill="none" xmlns="http://www.w3.org/2000/svg">
<path d="M57.0154 25.5391H50.0154C50.6318 26.0639 51.0533 26.7813 51.2117 27.5752C51.3702 28.3691 51.2566 29.1933 50.889 29.9146C50.5214 30.6358 49.9213 31.2125 49.1859 31.5508C48.4504 31.8891 47.6222 31.9695 46.8353 31.7793C46.1991 31.6286 45.6172 31.3053 45.1531 30.8447C44.6891 30.3842 44.3609 29.8045 44.2054 29.1694C44.0396 28.5147 44.0625 27.8264 44.2713 27.1841C44.4801 26.5418 44.8665 25.9712 45.3856 25.5391H38.4354V32.4692C37.9123 31.8493 37.1952 31.4241 36.4002 31.2627C35.6052 31.1013 34.7789 31.2131 34.0555 31.5801C33.332 31.947 32.7538 32.5474 32.4144 33.2842C32.0749 34.0209 31.9942 34.8508 32.1854 35.6392C32.3358 36.2771 32.6603 36.8608 33.1229 37.3252C33.5855 37.7896 34.1681 38.1162 34.8055 38.269C35.4594 38.4335 36.1466 38.4114 36.7884 38.2046C37.4302 37.9977 38.0006 37.6145 38.4354 37.0991V43.0991C38.4354 43.3643 38.5408 43.6186 38.7283 43.8062C38.9159 43.9937 39.1702 44.0991 39.4354 44.0991H54.9656C55.4961 44.0991 56.0046 43.8887 56.3797 43.5137C56.7548 43.1386 56.9656 42.6296 56.9656 42.0991L57.0154 25.5391Z" fill="#9E62FF"/>
<path d="M32.8257 43.9995L27.8955 39.0698C27.9625 39.8082 27.8005 40.5493 27.4316 41.1924C27.0628 41.8355 26.5051 42.3492 25.834 42.6641C25.1628 42.979 24.411 43.0795 23.6807 42.9521C22.9503 42.8248 22.2765 42.4761 21.7515 41.9526C21.2264 41.4292 20.8756 40.7568 20.7461 40.0269C20.6166 39.2969 20.715 38.5447 21.0278 37.8726C21.3407 37.2004 21.8527 36.6409 22.4946 36.27C23.1366 35.8992 23.8772 35.7351 24.6157 35.7998V35.7998L19.7056 30.8896L14.8057 35.7896C14.8557 35.2234 14.7712 34.6536 14.5586 34.1265C14.346 33.5993 14.0113 33.1299 13.5825 32.7568C13.1537 32.3837 12.6428 32.1171 12.0913 31.9795C11.5398 31.8419 10.9635 31.837 10.4097 31.9648C9.85583 32.0927 9.34012 32.3499 8.90479 32.7153C8.46945 33.0808 8.12711 33.5441 7.90527 34.0674C7.68344 34.5907 7.58835 35.1596 7.62842 35.7266C7.66848 36.2936 7.84252 36.8427 8.13574 37.3296C8.48524 37.9059 8.98866 38.3731 9.58936 38.6787C10.19 38.9844 10.8641 39.1163 11.5356 39.0596V39.0596L7.2959 43.2896C7.20217 43.3825 7.12743 43.4934 7.07666 43.6152C7.02589 43.7371 7 43.8675 7 43.9995C7 44.1315 7.02589 44.2624 7.07666 44.3843C7.12743 44.5061 7.20217 44.6165 7.2959 44.7095L18.2959 55.7095C18.4818 55.8969 18.7026 56.0459 18.9463 56.1475C19.19 56.249 19.4518 56.3013 19.7158 56.3013C19.9798 56.3013 20.2411 56.249 20.4849 56.1475C20.7286 56.0459 20.9498 55.8969 21.1357 55.7095L32.8257 43.9995Z" fill="#3F7DFF"/>
<path d="M38.4756 7.00977V14.0098C38.8411 13.5754 39.3043 13.2334 39.8271 13.0122C40.35 12.791 40.9176 12.6968 41.4839 12.7368C42.0502 12.7769 42.599 12.9501 43.0854 13.2427C43.5719 13.5353 43.9824 13.939 44.2832 14.4204C44.584 14.9019 44.7668 15.4477 44.8164 16.0132C44.8661 16.5787 44.7812 17.1478 44.5688 17.6743C44.3565 18.2008 44.0228 18.6696 43.5947 19.0425C43.1667 19.4153 42.6561 19.6817 42.1055 19.8198C41.4505 19.9808 40.7639 19.9556 40.1226 19.7471C39.4812 19.5386 38.9107 19.1549 38.4756 18.6396V25.5796H45.4155C44.9786 25.9439 44.6342 26.4066 44.4106 26.9297C44.1871 27.4528 44.0908 28.0213 44.1294 28.5889C44.168 29.1564 44.3405 29.7068 44.6328 30.1948C44.9251 30.6828 45.3293 31.0942 45.8115 31.396C46.2937 31.6978 46.8406 31.881 47.4072 31.9307C47.9739 31.9803 48.544 31.895 49.0713 31.6816C49.5986 31.4683 50.0677 31.1333 50.4404 30.7036C50.8132 30.2739 51.0791 29.7616 51.2158 29.2095C51.3768 28.5546 51.3516 27.8679 51.1431 27.2266C50.9346 26.5852 50.5509 26.0147 50.0356 25.5796H57.0356V9.03955C57.0356 8.50912 56.8248 8.00056 56.4497 7.62549C56.0746 7.25042 55.5661 7.03955 55.0356 7.03955L38.4756 7.00977Z" fill="#BDEA09"/>
<path d="M19.9355 24.5503C19.9355 24.8155 20.041 25.0698 20.2285 25.2573C20.4161 25.4449 20.6703 25.5503 20.9355 25.5503H26.9355C26.5002 25.1848 26.1578 24.7211 25.936 24.1978C25.7142 23.6744 25.6196 23.1061 25.6597 22.5391C25.6998 21.9721 25.8737 21.4229 26.167 20.936C26.4603 20.4491 26.8643 20.0384 27.3467 19.7378C27.8291 19.4372 28.3761 19.2552 28.9424 19.2065C29.5087 19.1579 30.0783 19.2441 30.605 19.458C31.1316 19.6719 31.6001 20.0073 31.9722 20.437C32.3442 20.8667 32.6093 21.3783 32.7456 21.9302C32.9058 22.5836 32.8804 23.2686 32.6719 23.9082C32.4634 24.5478 32.0804 25.1168 31.5659 25.5503H38.5059V18.6201C39.0272 19.2438 39.744 19.6726 40.54 19.8369C41.3361 20.0012 42.1645 19.8912 42.8901 19.5249C43.6158 19.1586 44.1961 18.5579 44.5366 17.8198C44.8772 17.0818 44.9578 16.2498 44.7656 15.46C44.6084 14.8125 44.2746 14.2215 43.8013 13.7524C43.328 13.2834 42.7339 12.9551 42.085 12.8037C41.4361 12.6524 40.7579 12.6843 40.126 12.8955C39.494 13.1068 38.9333 13.4889 38.5059 14V14V7H21.9658C21.4354 7 20.9263 7.21086 20.5513 7.58594C20.1762 7.96101 19.9658 8.46957 19.9658 9L19.9355 24.5503Z" fill="#00C5A1"/>
<path d="M38.4756 44.0902V37.0902C38.0006 37.6559 37.363 38.0618 36.6494 38.2528C35.9359 38.4438 35.1809 38.4104 34.4868 38.1576C33.7927 37.9048 33.1932 37.4449 32.7695 36.8397C32.3459 36.2346 32.1187 35.514 32.1187 34.7753C32.1187 34.0366 32.3459 33.3155 32.7695 32.7103C33.1932 32.1052 33.7927 31.6452 34.4868 31.3925C35.1809 31.1397 35.9359 31.1067 36.6494 31.2977C37.363 31.4887 38.0006 31.8942 38.4756 32.4598V32.4598V25.5101H31.5459C32.1638 24.9872 32.5871 24.2713 32.748 23.4779C32.909 22.6846 32.7979 21.86 32.4326 21.1376C32.0674 20.4152 31.4697 19.8371 30.7354 19.4965C30.001 19.1558 29.1732 19.0725 28.3857 19.2601C27.7459 19.4089 27.1601 19.7325 26.6938 20.1952C26.2276 20.6579 25.8992 21.2416 25.7456 21.8803C25.5823 22.5351 25.6063 23.2223 25.8149 23.8641C26.0236 24.506 26.4086 25.0765 26.9258 25.5101H19.9258" stroke="#0B0B0B" stroke-linejoin="round"/>
<path d="M38.4756 7.00977V14.0098C38.8411 13.5754 39.3043 13.2334 39.8271 13.0122C40.35 12.791 40.9176 12.6968 41.4839 12.7368C42.0502 12.7769 42.599 12.9501 43.0854 13.2427C43.5719 13.5353 43.9824 13.939 44.2832 14.4204C44.584 14.9019 44.7668 15.4477 44.8164 16.0132C44.8661 16.5787 44.7812 17.1478 44.5688 17.6743C44.3565 18.2008 44.0228 18.6696 43.5947 19.0425C43.1667 19.4153 42.6561 19.6817 42.1055 19.8198C41.4505 19.9808 40.7639 19.9556 40.1226 19.7471C39.4812 19.5386 38.9107 19.1549 38.4756 18.6396V25.5796H45.4155C44.9786 25.9439 44.6342 26.4066 44.4106 26.9297C44.1871 27.4528 44.0908 28.0213 44.1294 28.5889C44.168 29.1564 44.3405 29.7068 44.6328 30.1948C44.9251 30.6828 45.3293 31.0942 45.8115 31.396C46.2937 31.6978 46.8406 31.881 47.4072 31.9307C47.9739 31.9803 48.544 31.895 49.0713 31.6816C49.5986 31.4683 50.0677 31.1333 50.4404 30.7036C50.8132 30.2739 51.0791 29.7616 51.2158 29.2095C51.3768 28.5546 51.3516 27.8679 51.1431 27.2266C50.9346 26.5852 50.5509 26.0147 50.0356 25.5796H57.0356" stroke="#0B0B0B" stroke-linejoin="round"/>
</svg>
