<svg width="64" height="64" viewBox="0 0 64 64" fill="none" xmlns="http://www.w3.org/2000/svg">
<path d="M57.001 21.1699C57.0235 19.3305 56.6832 17.5052 55.9997 15.7974C55.3162 14.0896 54.3028 12.5328 53.0175 11.2168C51.7322 9.90083 50.2001 8.85149 48.5089 8.12793C46.8176 7.40437 45.0005 7.02089 43.1611 7C40.9713 7.00834 38.8154 7.54114 36.8737 8.55371C34.9321 9.56628 33.2612 11.0295 32.001 12.8203C30.7408 11.0295 29.07 9.56628 27.1284 8.55371C25.1867 7.54114 23.0308 7.00834 20.841 7C19.0016 7.02089 17.1843 7.40437 15.4931 8.12793C13.8019 8.85149 12.2699 9.90083 10.9846 11.2168C9.69925 12.5328 8.6859 14.0896 8.00239 15.7974C7.31887 17.5052 6.97859 19.3305 7.00104 21.1699V21.1699C7.00104 32.7599 18.321 44.4701 31.861 50.3301H32.1411C45.6811 44.4701 57.001 32.7602 57.001 21.1802V21.1699Z" fill="#9E62FF"/>
<path d="M51.7212 22.7603C51.7335 20.5803 51.1089 18.4441 49.924 16.6143C48.739 14.7844 47.0455 13.3405 45.0513 12.46" stroke="#0B0B0B" stroke-linecap="round" stroke-linejoin="round"/>
<path d="M43.951 54.8999C44.3765 55.4574 44.9077 55.9256 45.5142 56.2778C46.1206 56.63 46.7904 56.8593 47.4855 56.9526C48.1805 57.046 48.8871 57.0015 49.5649 56.8218C50.2428 56.642 50.8786 56.3308 51.436 55.9053C51.9935 55.4798 52.4618 54.9487 52.814 54.3423C53.1662 53.7359 53.3954 53.0657 53.4888 52.3706C53.5821 51.6756 53.5377 50.9689 53.3579 50.291C53.1781 49.6132 52.8665 48.9774 52.441 48.4199L47.3511 41.7603L46.701 40.9102C44.0716 43.3276 41.1959 45.4628 38.1211 47.2803L43.951 54.8999Z" fill="#3F7DFF"/>
<path d="M34.7713 34.1003C33.647 34.962 32.9103 36.2343 32.7229 37.6384C32.5354 39.0425 32.9124 40.4636 33.7713 41.5901L38.1213 47.2805C41.1961 45.463 44.0718 43.3278 46.7013 40.9104L42.2613 35.1003C41.3996 33.976 40.1271 33.2394 38.723 33.052C37.3189 32.8645 35.8978 33.2414 34.7713 34.1003Z" fill="#BDEA09"/>
<path d="M40.501 37.1895L49.541 49.0093" stroke="#0B0B0B" stroke-linecap="round" stroke-linejoin="round"/>
</svg>
