<svg viewBox="359.40000000000003 398.4 768 696" xmlns:xlink="http://www.w3.org/1999/xlink" version="1.1" xmlns="http://www.w3.org/2000/svg" style="max-height: 500px" width="768" height="696"><rect fill="#ffffff" height="1500" width="1500"/><g transform="matrix(0.6666666666666666,0,0,0.6666666666666666,249.39393939393938,438.5856950067477)"><svg xmlns:xlink="http://www.w3.org/1999/xlink" xmlns="http://www.w3.org/2000/svg" width="1500" height="935" preserveAspectRatio="xMidYMid meet" data-background-color="#ffffff" viewBox="0 0 396 247"><g transform="matrix(1,0,0,1,0.2400000000000091,-0.09999999999999432)" id="tight-bounds"><svg width="395.52" height="247.2" viewBox="0 0 395.52 247.2"><g><svg/></g><g><svg width="395.52" height="247.2" viewBox="0 0 395.52 247.2"><g transform="matrix(1,0,0,1,75.54432,59.32428549962434)"><svg width="244.43135999999998" height="128.5514290007513" viewBox="0 0 244.43135999999998 128.5514290007513"><g><svg width="244.43135999999998" height="128.5514290007513" viewBox="0 0 244.43135999999998 128.5514290007513"><g><svg width="244.43135999999998" height="128.5514290007513" viewBox="0 0 244.43135999999998 128.5514290007513"><g id="textblocktransform"><svg id="textblock" width="244.43135999999998" height="128.5514290007513" viewBox="0 0 244.43135999999998 128.5514290007513"><g><svg width="244.43135999999998" height="128.5514290007513" viewBox="0 0 244.43135999999998 128.5514290007513"><g transform="matrix(1,0,0,1,0,0)"><svg data-palette-color="#004bff" height="128.5514290007513" viewBox="4.6 -35 66.55000000000001 35" width="244.43135999999998"><path id="text-0" data-fill-palette-color="primary" class="wordmark-text-0" fill="#004bff" transform="matrix(1,0,0,1,0,0)" opacity="1" d="M4.6 0L4.6-35 28.1-35 28.05-29.95 10.5-29.95 10.5-19.55 26.4-19.55 26.4-14.55 10.5-14.55 10.5 0 4.6 0ZM33.35 0L33.35-35 40.2-35 52.3-11.25 64.3-35 71.15-35 71.15 0 65.7 0 65.65-26.75 54.15-3.65 50.4-3.65 38.8-26.75 38.8 0 33.35 0Z"/></svg></g></svg></g></svg></g></svg></g></svg></g></svg></g><path data-fill-palette-color="tertiary" stroke="transparent" fill="#ffffff" d="M151.022 53.324L151.022 6.966 384.29 6.966 384.29 240.234 151.022 240.234 151.022 193.876 162.615 193.876 162.615 228.641 372.697 228.641 372.697 18.559 162.615 18.559 162.615 53.324Z"/></svg></g><defs/></svg><rect visibility="hidden" stroke="none" fill="none" height="247.2" width="395.52"/></g></svg></g></svg>