<svg width="64" height="64" viewBox="0 0 64 64" fill="none" xmlns="http://www.w3.org/2000/svg">
<path d="M31.9717 18.5C35.1473 18.5 37.7217 15.9256 37.7217 12.75C37.7217 9.57436 35.1473 7 31.9717 7C28.796 7 26.2217 9.57436 26.2217 12.75C26.2217 15.9256 28.796 18.5 31.9717 18.5Z" fill="#3F7DFF"/>
<path d="M40.0116 21.4805H23.9316V34.1606H40.0116V21.4805Z" fill="#3F7DFF"/>
<path d="M26.6915 21.9305L17.1015 18.3407L11.9115 8.40072C11.5875 7.79476 11.0375 7.34102 10.381 7.13802C9.72452 6.93502 9.01447 6.99897 8.40494 7.31624C7.7954 7.63352 7.33556 8.17866 7.12525 8.83284C6.91493 9.48703 6.97111 10.1973 7.28156 10.8104L12.8716 21.5106C13.1364 22.042 13.559 22.4786 14.0815 22.7606L23.7315 28.3407C24.5816 28.7332 25.5527 28.7721 26.4313 28.4486C26.8663 28.2884 27.2656 28.0438 27.6062 27.7293C27.9468 27.4149 28.2222 27.0364 28.4165 26.6156C28.6109 26.1947 28.7205 25.7394 28.739 25.2762C28.7575 24.813 28.6845 24.3509 28.5244 23.9159C28.3642 23.4808 28.1199 23.0817 27.8054 22.741C27.4909 22.4004 27.1124 22.1249 26.6915 21.9305V21.9305Z" fill="#3F7DFF"/>
<path d="M52.0817 8.40079L46.9017 18.3407L37.3017 21.9306C36.8487 22.1047 36.4364 22.3702 36.0907 22.7108C35.745 23.0515 35.4732 23.4597 35.2924 23.9101C35.1115 24.3604 35.0254 24.8434 35.0396 25.3285C35.0537 25.8136 35.1678 26.2908 35.3745 26.7299C35.5813 27.169 35.8764 27.5604 36.2414 27.8803C36.6064 28.2002 37.0334 28.4414 37.4958 28.5888C37.9582 28.7362 38.446 28.7868 38.9288 28.7372C39.4116 28.6876 39.8789 28.539 40.3017 28.3007L49.9617 22.7206C50.4546 22.4378 50.8543 22.0173 51.1117 21.5107L56.7017 10.8105C56.9739 10.2033 57.0039 9.51521 56.7856 8.88663C56.5673 8.25805 56.1172 7.73638 55.5272 7.42862C54.9373 7.12087 54.252 7.05024 53.6116 7.23087C52.9712 7.4115 52.4239 7.83012 52.0817 8.40079Z" fill="#3F7DFF"/>
<path d="M43.6217 56.9995L46.9717 33.7695H16.9717L20.3217 56.9995H43.6217Z" fill="#00C5A1"/>
<path d="M14.8613 33.7695H49.0913" stroke="#0B0B0B" stroke-linecap="round" stroke-linejoin="round"/>
<path d="M42.3014 33.7598V28.0098C42.3014 27.4793 42.0907 26.9708 41.7156 26.5957C41.3406 26.2206 40.8319 26.0098 40.3014 26.0098H37.2114" stroke="#0B0B0B" stroke-linecap="round" stroke-linejoin="round"/>
</svg>
