<svg width="64" height="64" viewBox="0 0 64 64" fill="none" xmlns="http://www.w3.org/2000/svg">
<path d="M17.6104 42.8608C17.6104 39.0417 19.1275 35.3792 21.828 32.6787C24.5285 29.9782 28.1913 28.4609 32.0104 28.4609V28.4609C33.9014 28.4609 35.7739 28.8335 37.521 29.5571C39.2681 30.2808 40.8556 31.3415 42.1927 32.6787C43.5299 34.0159 44.5905 35.603 45.3142 37.3501C46.0379 39.0972 46.4104 40.9698 46.4104 42.8608" fill="#BDEA09"/>
<path d="M32.0002 24.8203C36.9211 24.8203 40.9103 20.831 40.9103 15.9102C40.9103 10.9893 36.9211 7 32.0002 7C27.0794 7 23.0903 10.9893 23.0903 15.9102C23.0903 20.831 27.0794 24.8203 32.0002 24.8203Z" fill="#BDEA09"/>
<path d="M15.1799 33.9701H48.7799C49.3581 33.9701 49.9126 34.1999 50.3214 34.6088C50.7302 35.0176 50.96 35.5721 50.96 36.1503V56.9701H12.96V36.1503C12.9599 35.8606 13.0176 35.5737 13.1296 35.3065C13.2417 35.0394 13.4059 34.7971 13.6125 34.5941C13.8192 34.3912 14.0642 34.2316 14.3334 34.1244C14.6025 34.0172 14.8903 33.9648 15.1799 33.9701Z" fill="#3F7DFF"/>
<path d="M7 56.9297H57" stroke="#0B0B0B" stroke-miterlimit="10" stroke-linecap="round"/>
<path d="M32 47.9707C33.3807 47.9707 34.5 46.8514 34.5 45.4707C34.5 44.09 33.3807 42.9707 32 42.9707C30.6193 42.9707 29.5 44.09 29.5 45.4707C29.5 46.8514 30.6193 47.9707 32 47.9707Z" stroke="white" stroke-miterlimit="10" stroke-linecap="round"/>
</svg>
