<svg width="64" height="64" viewBox="0 0 64 64" fill="none" xmlns="http://www.w3.org/2000/svg">
<path d="M15.23 49.4199C19.7753 49.4199 23.46 45.7352 23.46 41.1899C23.46 36.6446 19.7753 32.96 15.23 32.96C10.6847 32.96 7 36.6446 7 41.1899C7 45.7352 10.6847 49.4199 15.23 49.4199Z" fill="#00C5A1"/>
<path d="M11.8901 45.4507C11.8901 44.5719 12.2385 43.7288 12.859 43.1064C13.4795 42.4841 14.3214 42.1335 15.2002 42.1309V42.1309C16.0807 42.1309 16.9251 42.4804 17.5477 43.103C18.1704 43.7256 18.5201 44.5702 18.5201 45.4507" stroke="#0B0B0B" stroke-linecap="round" stroke-linejoin="round"/>
<path d="M15.2301 40.6401C16.2463 40.6401 17.0702 39.816 17.0702 38.7998C17.0702 37.7836 16.2463 36.96 15.2301 36.96C14.2139 36.96 13.3901 37.7836 13.3901 38.7998C13.3901 39.816 14.2139 40.6401 15.2301 40.6401Z" stroke="#0B0B0B" stroke-linecap="round" stroke-linejoin="round"/>
<path d="M48.77 49.4199C53.3153 49.4199 57 45.7352 57 41.1899C57 36.6446 53.3153 32.96 48.77 32.96C44.2247 32.96 40.54 36.6446 40.54 41.1899C40.54 45.7352 44.2247 49.4199 48.77 49.4199Z" fill="#BDEA09"/>
<path d="M45.46 45.4507C45.46 44.5702 45.8098 43.7256 46.4324 43.103C47.055 42.4804 47.8995 42.1309 48.78 42.1309V42.1309C49.6588 42.1335 50.5006 42.4841 51.1211 43.1064C51.7416 43.7288 52.09 44.5719 52.09 45.4507" stroke="#0B0B0B" stroke-linecap="round" stroke-linejoin="round"/>
<path d="M48.7701 40.6401C49.7863 40.6401 50.6101 39.816 50.6101 38.7998C50.6101 37.7836 49.7863 36.96 48.7701 36.96C47.7539 36.96 46.9302 37.7836 46.9302 38.7998C46.9302 39.816 47.7539 40.6401 48.7701 40.6401Z" stroke="#0B0B0B" stroke-linecap="round" stroke-linejoin="round"/>
<path d="M32 43.04C39.743 43.04 46.02 36.7631 46.02 29.02C46.02 21.277 39.743 15 32 15C24.257 15 17.98 21.277 17.98 29.02C17.98 36.7631 24.257 43.04 32 43.04Z" fill="#3F7DFF"/>
<path d="M26.3501 36.2398C26.3501 35.4969 26.4966 34.7613 26.7811 34.0752C27.0657 33.3891 27.4828 32.766 28.0085 32.2412C28.5343 31.7164 29.1582 31.3004 29.8448 31.0171C30.5315 30.7337 31.2673 30.5885 32.0101 30.5899C33.5086 30.5899 34.9457 31.1851 36.0052 32.2446C37.0648 33.3042 37.6602 34.7413 37.6602 36.2398" stroke="white" stroke-linecap="round" stroke-linejoin="round"/>
<path d="M31.9999 28.0903C33.7341 28.0903 35.1399 26.6849 35.1399 24.9507C35.1399 23.2165 33.7341 21.8105 31.9999 21.8105C30.2657 21.8105 28.8599 23.2165 28.8599 24.9507C28.8599 26.6849 30.2657 28.0903 31.9999 28.0903Z" stroke="white" stroke-linecap="round" stroke-linejoin="round"/>
</svg>
