<svg width="64" height="64" viewBox="0 0 64 64" fill="none" xmlns="http://www.w3.org/2000/svg">
<path d="M23.3101 57V7L19.5298 8.20996V57H23.3101Z" fill="#3F7DFF"/>
<path d="M54.6396 15.2192L23.3101 7.0293L7 12.2793V15.8394H54.5601C54.6423 15.85 54.7254 15.8275 54.791 15.7769C54.8567 15.7262 54.8991 15.6516 54.9097 15.5693C54.9203 15.4871 54.8978 15.404 54.8472 15.3384C54.7965 15.2727 54.7219 15.2298 54.6396 15.2192V15.2192Z" stroke="black" stroke-linecap="round" stroke-linejoin="round"/>
<path d="M13.9399 57H35.4497" stroke="black" stroke-linecap="round" stroke-linejoin="round"/>
<path d="M19.5298 8.20898V56.999" stroke="black" stroke-linecap="round" stroke-linejoin="round"/>
<path d="M10.8999 15.7979V10.9883" stroke="black" stroke-linecap="round" stroke-linejoin="round"/>
<path d="M50.3301 29.918H37.0601C35.6462 29.918 34.5 31.0642 34.5 32.478V45.748C34.5 47.1619 35.6462 48.3081 37.0601 48.3081H50.3301C51.7439 48.3081 52.8896 47.1619 52.8896 45.748V32.478C52.8896 31.0642 51.7439 29.918 50.3301 29.918Z" fill="#00C5A1"/>
<path d="M46.8696 34.709H40.52C39.8407 34.709 39.29 35.2597 39.29 35.939V42.2891C39.29 42.9684 39.8407 43.519 40.52 43.519H46.8696C47.5489 43.519 48.1001 42.9684 48.1001 42.2891V35.939C48.1001 35.2597 47.5489 34.709 46.8696 34.709Z" stroke="black" stroke-linecap="round" stroke-linejoin="round"/>
<path d="M39.2798 29.9185V25.8184" stroke="black" stroke-linecap="round" stroke-linejoin="round"/>
<path d="M48.1001 29.9185V25.8184" stroke="black" stroke-linecap="round" stroke-linejoin="round"/>
<path d="M39.2798 52.4087V48.3086" stroke="black" stroke-linecap="round" stroke-linejoin="round"/>
<path d="M48.1001 52.4087V48.3086" stroke="black" stroke-linecap="round" stroke-linejoin="round"/>
<path d="M43.6997 48.3086V52.4087" stroke="black" stroke-linecap="round" stroke-linejoin="round"/>
<path d="M56.9897 43.5195H52.8896" stroke="black" stroke-linecap="round" stroke-linejoin="round"/>
<path d="M56.9897 34.6992H52.8896" stroke="black" stroke-linecap="round" stroke-linejoin="round"/>
<path d="M52.8896 39.1094H56.9897" stroke="black" stroke-linecap="round" stroke-linejoin="round"/>
<path d="M34.5 43.5195H30.3999" stroke="black" stroke-linecap="round" stroke-linejoin="round"/>
<path d="M34.5 34.6992H30.3999" stroke="black" stroke-linecap="round" stroke-linejoin="round"/>
<path d="M30.3999 39.1094H34.5" stroke="black" stroke-linecap="round" stroke-linejoin="round"/>
<path d="M43.6997 15.7988V29.9189" stroke="black" stroke-linecap="round" stroke-linejoin="round"/>
</svg>
