<svg width="64" height="64" viewBox="0 0 64 64" fill="none" xmlns="http://www.w3.org/2000/svg">
<path d="M56.96 32C56.96 33.59 54.3501 34.8999 54.0601 36.3999C53.7701 37.8999 55.6501 40.1498 55.0601 41.5698C54.4701 42.9898 51.5499 43.2303 50.6899 44.5103C49.8299 45.7903 50.6901 48.5802 49.6401 49.6802C48.5901 50.7802 45.7697 49.86 44.4697 50.73C43.1697 51.6 42.9798 54.5001 41.5298 55.1001C40.0798 55.7001 37.8999 53.7901 36.3599 54.1001C34.8199 54.4101 33.55 57.0103 31.96 57.0103C30.37 57.0103 29.0601 54.4001 27.5601 54.1001C26.0601 53.8001 23.8101 55.7001 22.3901 55.1001C20.9701 54.5001 20.7297 51.59 19.4497 50.73C18.1697 49.87 15.3798 50.7302 14.2798 49.6802C13.1798 48.6302 14.0998 45.8103 13.2798 44.5103C12.4598 43.2103 9.51016 43.0098 8.91016 41.5698C8.31016 40.1298 10.2202 37.9399 9.91016 36.3999C9.60016 34.8599 7 33.59 7 32C7 30.41 9.61016 29.1001 9.91016 27.6001C10.2102 26.1001 8.31016 23.8502 8.91016 22.4302C9.51016 21.0102 12.4198 20.77 13.2798 19.48C14.1398 18.19 13.2298 15.4198 14.2798 14.3198C15.3298 13.2198 18.1497 14.13 19.4497 13.27C20.7497 12.41 20.9401 9.4999 22.3901 8.8999C23.8401 8.2999 26.0201 10.2099 27.5601 9.8999C29.1001 9.5899 30.37 7 31.96 7C33.55 7 34.8599 9.6099 36.3599 9.8999C37.8599 10.1899 40.1098 8.3099 41.5298 8.8999C42.9498 9.4899 43.1897 12.41 44.4697 13.27C45.7497 14.13 48.5401 13.2198 49.6401 14.3198C50.7401 15.4198 49.8199 18.1902 50.6899 19.4902C51.5599 20.7902 54.4601 20.9802 55.0601 22.4302C55.6601 23.8802 53.7501 26.0601 54.0601 27.6001C54.3701 29.1401 56.96 30.41 56.96 32Z" fill="#00C5A1"/>
<path d="M31.96 50.5088C42.1883 50.5088 50.48 42.2171 50.48 31.9888C50.48 21.7605 42.1883 13.4688 31.96 13.4688C21.7316 13.4688 13.4399 21.7605 13.4399 31.9888C13.4399 42.2171 21.7316 50.5088 31.96 50.5088Z" fill="#3F7DFF"/>
<path d="M31.96 46.8081C40.1448 46.8081 46.7798 40.1727 46.7798 31.9878C46.7798 23.8029 40.1448 17.168 31.96 17.168C23.7751 17.168 17.1401 23.8029 17.1401 31.9878C17.1401 40.1727 23.7751 46.8081 31.96 46.8081Z" stroke="white" stroke-linecap="round" stroke-linejoin="round"/>
<path d="M25.1699 31.77L30.3198 36.9199L38.7397 28.5" stroke="white" stroke-linecap="round" stroke-linejoin="round"/>
</svg>
