<svg width="71" height="70" viewBox="0 0 71 70" fill="none" xmlns="http://www.w3.org/2000/svg">
<g id="Mask group" filter="url(#filter0_dd_353_26898)">
<mask id="mask0_353_26898" style="mask-type:alpha" maskUnits="userSpaceOnUse" x="3" y="2" width="65" height="64">
<circle id="Ellipse 31" cx="35.1111" cy="34" r="32" fill="#D9D9D9"/>
</mask>
<g mask="url(#mask0_353_26898)">
<g id="Group 964">
<path id="Vector" d="M83.1111 2H-12.8889V66H83.1111V2Z" fill="#003399"/>
<g id="Group">
<g id="s">
<g id="c">
<path id="t" d="M35.1111 9.11108L34.0124 12.4926L35.7031 13.042L35.1111 9.11108Z" fill="#FFCC00"/>
<path id="Vector_2" d="M35.1111 9.11108L36.2098 12.4926L34.519 13.042L35.1111 9.11108Z" fill="#FFCC00"/>
</g>
<g id="a">
<g id="c_2">
<path id="t_2" d="M38.4924 11.5679H34.9369V13.3456L38.4924 11.5679Z" fill="#FFCC00"/>
<path id="Vector_3" d="M38.4924 11.5679L35.6159 13.6578L34.571 12.2195L38.4924 11.5679Z" fill="#FFCC00"/>
</g>
<g id="c_3">
<path id="t_3" d="M37.2012 15.5425L36.1024 12.1609L34.4117 12.7103L37.2012 15.5425Z" fill="#FFCC00"/>
<path id="Vector_4" d="M37.2012 15.5425L34.3247 13.4526L35.3696 12.0143L37.2012 15.5425Z" fill="#FFCC00"/>
</g>
</g>
<g id="a_2">
<g id="c_4">
<path id="t_4" d="M31.7297 11.5679H35.2853V13.3456L31.7297 11.5679Z" fill="#FFCC00"/>
<path id="Vector_5" d="M31.7297 11.5679L34.6062 13.6578L35.6512 12.2195L31.7297 11.5679Z" fill="#FFCC00"/>
</g>
<g id="c_5">
<path id="t_5" d="M33.021 15.5425L34.1197 12.1609L35.8105 12.7103L33.021 15.5425Z" fill="#FFCC00"/>
<path id="Vector_6" d="M33.021 15.5425L35.8975 13.4526L34.8525 12.0143L33.021 15.5425Z" fill="#FFCC00"/>
</g>
</g>
</g>
<g id="s_2">
<g id="c_6">
<path id="t_6" d="M35.1111 51.7778L34.0124 55.1594L35.7031 55.7087L35.1111 51.7778Z" fill="#FFCC00"/>
<path id="Vector_7" d="M35.1111 51.7778L36.2098 55.1594L34.519 55.7087L35.1111 51.7778Z" fill="#FFCC00"/>
</g>
<g id="a_3">
<g id="c_7">
<path id="t_7" d="M38.4924 54.2346H34.9369V56.0124L38.4924 54.2346Z" fill="#FFCC00"/>
<path id="Vector_8" d="M38.4924 54.2346L35.6159 56.3245L34.571 54.8863L38.4924 54.2346Z" fill="#FFCC00"/>
</g>
<g id="c_8">
<path id="t_8" d="M37.2007 58.2097L36.102 54.8282L34.4112 55.3775L37.2007 58.2097Z" fill="#FFCC00"/>
<path id="Vector_9" d="M37.2007 58.2097L34.3242 56.1198L35.3691 54.6816L37.2007 58.2097Z" fill="#FFCC00"/>
</g>
</g>
<g id="a_4">
<g id="c_9">
<path id="t_9" d="M31.7297 54.2346H35.2853V56.0124L31.7297 54.2346Z" fill="#FFCC00"/>
<path id="Vector_10" d="M31.7297 54.2346L34.6062 56.3245L35.6512 54.8863L31.7297 54.2346Z" fill="#FFCC00"/>
</g>
<g id="c_10">
<path id="t_10" d="M33.021 58.2092L34.1197 54.8277L35.8105 55.3771L33.021 58.2092Z" fill="#FFCC00"/>
<path id="Vector_11" d="M33.021 58.2092L35.8975 56.1193L34.8525 54.6811L33.021 58.2092Z" fill="#FFCC00"/>
</g>
</g>
</g>
<g id="l">
<g id="s_3">
<g id="c_11">
<path id="t_11" d="M13.7778 30.4446L12.6791 33.8261L14.3699 34.3755L13.7778 30.4446Z" fill="#FFCC00"/>
<path id="Vector_12" d="M13.7778 30.4446L14.8766 33.8261L13.1858 34.3755L13.7778 30.4446Z" fill="#FFCC00"/>
</g>
<g id="a_5">
<g id="c_12">
<path id="t_12" d="M17.1594 32.9011H13.6039V34.6789L17.1594 32.9011Z" fill="#FFCC00"/>
<path id="Vector_13" d="M17.1594 32.9011L14.2829 34.991L13.238 33.5528L17.1594 32.9011Z" fill="#FFCC00"/>
</g>
<g id="c_13">
<path id="t_13" d="M15.8676 36.8765L14.7688 33.4949L13.0781 34.0443L15.8676 36.8765Z" fill="#FFCC00"/>
<path id="Vector_14" d="M15.8676 36.8765L12.991 34.7866L14.036 33.3483L15.8676 36.8765Z" fill="#FFCC00"/>
</g>
</g>
<g id="a_6">
<g id="c_14">
<path id="t_14" d="M10.3961 32.9011H13.9517V34.6789L10.3961 32.9011Z" fill="#FFCC00"/>
<path id="Vector_15" d="M10.3961 32.9011L13.2726 34.991L14.3176 33.5528L10.3961 32.9011Z" fill="#FFCC00"/>
</g>
<g id="c_15">
<path id="t_15" d="M11.6879 36.8765L12.7866 33.4949L14.4774 34.0443L11.6879 36.8765Z" fill="#FFCC00"/>
<path id="Vector_16" d="M11.6879 36.8765L14.5644 34.7866L13.5194 33.3483L11.6879 36.8765Z" fill="#FFCC00"/>
</g>
</g>
</g>
<g id="s_4">
<g id="c_16">
<path id="t_16" d="M22.3547 18.4011L25.2312 16.3112L24.1863 14.873L22.3547 18.4011Z" fill="#FFCC00"/>
<path id="Vector_17" d="M22.3547 18.4011L23.4535 15.0196L25.1442 15.569L22.3547 18.4011Z" fill="#FFCC00"/>
</g>
<g id="a_7">
<g id="c_17">
<path id="t_17" d="M21.0627 14.426L23.9392 16.5159L24.9842 15.0777L21.0627 14.426Z" fill="#FFCC00"/>
<path id="Vector_18" d="M21.0627 14.426H24.6183V16.2038L21.0627 14.426Z" fill="#FFCC00"/>
</g>
<g id="c_18">
<path id="t_18" d="M24.4446 11.969L23.3459 15.3505L25.0366 15.8999L24.4446 11.969Z" fill="#FFCC00"/>
<path id="Vector_19" d="M24.4446 11.969L25.5433 15.3505L23.8525 15.8999L24.4446 11.969Z" fill="#FFCC00"/>
</g>
</g>
<g id="a_8">
<g id="c_19">
<path id="t_19" d="M26.5344 18.4011L23.6579 16.3112L24.7029 14.873L26.5344 18.4011Z" fill="#FFCC00"/>
<path id="Vector_20" d="M26.5344 18.4011L25.4357 15.0196L23.7449 15.569L26.5344 18.4011Z" fill="#FFCC00"/>
</g>
<g id="c_20">
<path id="t_20" d="M27.8262 14.426L24.9497 16.5159L23.9047 15.0777L27.8262 14.426Z" fill="#FFCC00"/>
<path id="Vector_21" d="M27.8262 14.426H24.2706V16.2038L27.8262 14.426Z" fill="#FFCC00"/>
</g>
</g>
</g>
<g id="s_5">
<g id="c_21">
<path id="t_21" d="M18.7261 26.2097L17.6273 22.8282L15.9366 23.3775L18.7261 26.2097Z" fill="#FFCC00"/>
<path id="Vector_22" d="M18.7261 26.2097L15.8496 24.1198L16.8945 22.6816L18.7261 26.2097Z" fill="#FFCC00"/>
</g>
<g id="a_9">
<g id="c_22">
<path id="t_22" d="M14.5461 26.21L17.4226 24.1201L16.3777 22.6818L14.5461 26.21Z" fill="#FFCC00"/>
<path id="Vector_23" d="M14.5461 26.21L15.6449 22.8284L17.3356 23.3778L14.5461 26.21Z" fill="#FFCC00"/>
</g>
<g id="c_23">
<path id="t_23" d="M13.2549 22.2344L16.1314 24.3243L17.1763 22.886L13.2549 22.2344Z" fill="#FFCC00"/>
<path id="Vector_24" d="M13.2549 22.2344H16.8104V24.0122L13.2549 22.2344Z" fill="#FFCC00"/>
</g>
</g>
<g id="a_10">
<g id="c_24">
<path id="t_24" d="M20.0176 22.2346L17.1411 24.3245L16.0961 22.8863L20.0176 22.2346Z" fill="#FFCC00"/>
<path id="Vector_25" d="M20.0176 22.2346H16.462V24.0124L20.0176 22.2346Z" fill="#FFCC00"/>
</g>
<g id="c_25">
<path id="t_25" d="M16.6361 19.7778L17.7348 23.1594L16.0441 23.7087L16.6361 19.7778Z" fill="#FFCC00"/>
<path id="Vector_26" d="M16.6361 19.7778L15.5374 23.1594L17.2281 23.7087L16.6361 19.7778Z" fill="#FFCC00"/>
</g>
</g>
</g>
<g id="s_6">
<g id="c_26">
<path id="t_26" d="M20.0173 43.5676H16.4618V45.3454L20.0173 43.5676Z" fill="#FFCC00"/>
<path id="Vector_27" d="M20.0173 43.5676L17.1408 45.6575L16.0959 44.2193L20.0173 43.5676Z" fill="#FFCC00"/>
</g>
<g id="a_11">
<g id="c_27">
<path id="t_27" d="M18.7258 47.543L17.6271 44.1614L15.9363 44.7108L18.7258 47.543Z" fill="#FFCC00"/>
<path id="Vector_28" d="M18.7258 47.543L15.8493 45.4531L16.8943 44.0148L18.7258 47.543Z" fill="#FFCC00"/>
</g>
<g id="c_28">
<path id="t_28" d="M14.5455 47.543L17.422 45.4531L16.3771 44.0148L14.5455 47.543Z" fill="#FFCC00"/>
<path id="Vector_29" d="M14.5455 47.543L15.6443 44.1614L17.335 44.7108L14.5455 47.543Z" fill="#FFCC00"/>
</g>
</g>
<g id="a_12">
<g id="c_29">
<path id="t_29" d="M16.6359 41.1111L17.7346 44.4926L16.0438 45.042L16.6359 41.1111Z" fill="#FFCC00"/>
<path id="Vector_30" d="M16.6359 41.1111L15.5371 44.4926L17.2279 45.042L16.6359 41.1111Z" fill="#FFCC00"/>
</g>
<g id="c_30">
<path id="t_30" d="M13.2543 43.5679H16.8098V45.3456L13.2543 43.5679Z" fill="#FFCC00"/>
<path id="Vector_31" d="M13.2543 43.5679L16.1308 45.6578L17.1757 44.2195L13.2543 43.5679Z" fill="#FFCC00"/>
</g>
</g>
</g>
<g id="s_7">
<g id="c_31">
<path id="t_31" d="M27.8257 51.3765H24.2701V53.1542L27.8257 51.3765Z" fill="#FFCC00"/>
<path id="Vector_32" d="M27.8257 51.3765L24.9492 53.4664L23.9042 52.0281L27.8257 51.3765Z" fill="#FFCC00"/>
</g>
<g id="a_13">
<g id="c_32">
<path id="t_32" d="M26.5344 55.3518L25.4357 51.9703L23.7449 52.5196L26.5344 55.3518Z" fill="#FFCC00"/>
<path id="Vector_33" d="M26.5344 55.3518L23.6579 53.2619L24.7029 51.8237L26.5344 55.3518Z" fill="#FFCC00"/>
</g>
<g id="c_33">
<path id="t_33" d="M22.3547 55.3518L25.2312 53.2619L24.1863 51.8237L22.3547 55.3518Z" fill="#FFCC00"/>
<path id="Vector_34" d="M22.3547 55.3518L23.4535 51.9703L25.1442 52.5196L22.3547 55.3518Z" fill="#FFCC00"/>
</g>
</g>
<g id="a_14">
<g id="c_34">
<path id="t_34" d="M24.4443 48.9197L25.5431 52.3012L23.8523 52.8506L24.4443 48.9197Z" fill="#FFCC00"/>
<path id="Vector_35" d="M24.4443 48.9197L23.3456 52.3012L25.0364 52.8506L24.4443 48.9197Z" fill="#FFCC00"/>
</g>
<g id="c_35">
<path id="t_35" d="M21.0627 51.3765H24.6183V53.1542L21.0627 51.3765Z" fill="#FFCC00"/>
<path id="Vector_36" d="M21.0627 51.3765L23.9392 53.4664L24.9842 52.0281L21.0627 51.3765Z" fill="#FFCC00"/>
</g>
</g>
</g>
</g>
<g id="l_2">
<g id="s_8">
<g id="c_36">
<path id="t_36" d="M56.4443 30.4446L57.5431 33.8261L55.8523 34.3755L56.4443 30.4446Z" fill="#FFCC00"/>
<path id="Vector_37" d="M56.4443 30.4446L55.3456 33.8261L57.0364 34.3755L56.4443 30.4446Z" fill="#FFCC00"/>
</g>
<g id="a_15">
<g id="c_37">
<path id="t_37" d="M53.0627 32.9011H56.6183V34.6789L53.0627 32.9011Z" fill="#FFCC00"/>
<path id="Vector_38" d="M53.0627 32.9011L55.9392 34.991L56.9842 33.5528L53.0627 32.9011Z" fill="#FFCC00"/>
</g>
<g id="c_38">
<path id="t_38" d="M54.3547 36.8765L55.4535 33.4949L57.1442 34.0443L54.3547 36.8765Z" fill="#FFCC00"/>
<path id="Vector_39" d="M54.3547 36.8765L57.2312 34.7866L56.1863 33.3483L54.3547 36.8765Z" fill="#FFCC00"/>
</g>
</g>
<g id="a_16">
<g id="c_39">
<path id="t_39" d="M59.8262 32.9011H56.2706V34.6789L59.8262 32.9011Z" fill="#FFCC00"/>
<path id="Vector_40" d="M59.8262 32.9011L56.9497 34.991L55.9047 33.5528L59.8262 32.9011Z" fill="#FFCC00"/>
</g>
<g id="c_40">
<path id="t_40" d="M58.5344 36.8765L57.4357 33.4949L55.7449 34.0443L58.5344 36.8765Z" fill="#FFCC00"/>
<path id="Vector_41" d="M58.5344 36.8765L55.6579 34.7866L56.7029 33.3483L58.5344 36.8765Z" fill="#FFCC00"/>
</g>
</g>
</g>
<g id="s_9">
<g id="c_41">
<path id="t_41" d="M47.8674 18.4011L44.9909 16.3112L46.0359 14.873L47.8674 18.4011Z" fill="#FFCC00"/>
<path id="Vector_42" d="M47.8674 18.4011L46.7687 15.0196L45.0779 15.569L47.8674 18.4011Z" fill="#FFCC00"/>
</g>
<g id="a_17">
<g id="c_42">
<path id="t_42" d="M49.1594 14.426L46.2829 16.5159L45.238 15.0777L49.1594 14.426Z" fill="#FFCC00"/>
<path id="Vector_43" d="M49.1594 14.426H45.6039V16.2038L49.1594 14.426Z" fill="#FFCC00"/>
</g>
<g id="c_43">
<path id="t_43" d="M45.7776 11.969L46.8763 15.3505L45.1855 15.8999L45.7776 11.969Z" fill="#FFCC00"/>
<path id="Vector_44" d="M45.7776 11.969L44.6789 15.3505L46.3696 15.8999L45.7776 11.969Z" fill="#FFCC00"/>
</g>
</g>
<g id="a_18">
<g id="c_44">
<path id="t_44" d="M43.6877 18.4011L46.5642 16.3112L45.5193 14.873L43.6877 18.4011Z" fill="#FFCC00"/>
<path id="Vector_45" d="M43.6877 18.4011L44.7865 15.0196L46.4772 15.569L43.6877 18.4011Z" fill="#FFCC00"/>
</g>
<g id="c_45">
<path id="t_45" d="M42.396 14.426L45.2725 16.5159L46.3175 15.0777L42.396 14.426Z" fill="#FFCC00"/>
<path id="Vector_46" d="M42.396 14.426H45.9516V16.2038L42.396 14.426Z" fill="#FFCC00"/>
</g>
</g>
</g>
<g id="s_10">
<g id="c_46">
<path id="t_46" d="M51.4961 26.2097L52.5948 22.8282L54.2856 23.3775L51.4961 26.2097Z" fill="#FFCC00"/>
<path id="Vector_47" d="M51.4961 26.2097L54.3726 24.1198L53.3276 22.6816L51.4961 26.2097Z" fill="#FFCC00"/>
</g>
<g id="a_19">
<g id="c_47">
<path id="t_47" d="M55.676 26.21L52.7995 24.1201L53.8445 22.6818L55.676 26.21Z" fill="#FFCC00"/>
<path id="Vector_48" d="M55.676 26.21L54.5773 22.8284L52.8865 23.3778L55.676 26.21Z" fill="#FFCC00"/>
</g>
<g id="c_48">
<path id="t_48" d="M56.9673 22.2344L54.0908 24.3243L53.0458 22.886L56.9673 22.2344Z" fill="#FFCC00"/>
<path id="Vector_49" d="M56.9673 22.2344H53.4117V24.0122L56.9673 22.2344Z" fill="#FFCC00"/>
</g>
</g>
<g id="a_20">
<g id="c_49">
<path id="t_49" d="M50.2046 22.2346L53.0811 24.3245L54.126 22.8863L50.2046 22.2346Z" fill="#FFCC00"/>
<path id="Vector_50" d="M50.2046 22.2346H53.7601V24.0124L50.2046 22.2346Z" fill="#FFCC00"/>
</g>
<g id="c_50">
<path id="t_50" d="M53.5859 19.7778L52.4872 23.1594L54.178 23.7087L53.5859 19.7778Z" fill="#FFCC00"/>
<path id="Vector_51" d="M53.5859 19.7778L54.6847 23.1594L52.9939 23.7087L53.5859 19.7778Z" fill="#FFCC00"/>
</g>
</g>
</g>
<g id="s_11">
<g id="c_51">
<path id="t_51" d="M50.2048 43.5676H53.7604V45.3454L50.2048 43.5676Z" fill="#FFCC00"/>
<path id="Vector_52" d="M50.2048 43.5676L53.0813 45.6575L54.1263 44.2193L50.2048 43.5676Z" fill="#FFCC00"/>
</g>
<g id="a_21">
<g id="c_52">
<path id="t_52" d="M51.4963 47.5432L52.5951 44.1617L54.2858 44.711L51.4963 47.5432Z" fill="#FFCC00"/>
<path id="Vector_53" d="M51.4963 47.5432L54.3728 45.4533L53.3279 44.0151L51.4963 47.5432Z" fill="#FFCC00"/>
</g>
<g id="c_53">
<path id="t_53" d="M55.676 47.5432L52.7995 45.4533L53.8445 44.0151L55.676 47.5432Z" fill="#FFCC00"/>
<path id="Vector_54" d="M55.676 47.5432L54.5773 44.1617L52.8865 44.711L55.676 47.5432Z" fill="#FFCC00"/>
</g>
</g>
<g id="a_22">
<g id="c_54">
<path id="t_54" d="M53.5862 41.1111L52.4875 44.4926L54.1782 45.042L53.5862 41.1111Z" fill="#FFCC00"/>
<path id="Vector_55" d="M53.5862 41.1111L54.6849 44.4926L52.9941 45.042L53.5862 41.1111Z" fill="#FFCC00"/>
</g>
<g id="c_55">
<path id="t_55" d="M56.9678 43.5679H53.4122V45.3456L56.9678 43.5679Z" fill="#FFCC00"/>
<path id="Vector_56" d="M56.9678 43.5679L54.0913 45.6578L53.0463 44.2195L56.9678 43.5679Z" fill="#FFCC00"/>
</g>
</g>
</g>
<g id="s_12">
<g id="c_56">
<path id="t_56" d="M42.3965 51.3765H45.952V53.1542L42.3965 51.3765Z" fill="#FFCC00"/>
<path id="Vector_57" d="M42.3965 51.3765L45.273 53.4664L46.3179 52.0281L42.3965 51.3765Z" fill="#FFCC00"/>
</g>
<g id="a_23">
<g id="c_57">
<path id="t_57" d="M43.6877 55.3518L44.7865 51.9703L46.4772 52.5196L43.6877 55.3518Z" fill="#FFCC00"/>
<path id="Vector_58" d="M43.6877 55.3518L46.5642 53.2619L45.5193 51.8237L43.6877 55.3518Z" fill="#FFCC00"/>
</g>
<g id="c_58">
<path id="t_58" d="M47.8674 55.3518L44.9909 53.2619L46.0359 51.8237L47.8674 55.3518Z" fill="#FFCC00"/>
<path id="Vector_59" d="M47.8674 55.3518L46.7687 51.9703L45.0779 52.5196L47.8674 55.3518Z" fill="#FFCC00"/>
</g>
</g>
<g id="a_24">
<g id="c_59">
<path id="t_59" d="M45.7778 48.9197L44.6791 52.3012L46.3699 52.8506L45.7778 48.9197Z" fill="#FFCC00"/>
<path id="Vector_60" d="M45.7778 48.9197L46.8766 52.3012L45.1858 52.8506L45.7778 48.9197Z" fill="#FFCC00"/>
</g>
<g id="c_60">
<path id="t_60" d="M49.1594 51.3765H45.6039V53.1542L49.1594 51.3765Z" fill="#FFCC00"/>
<path id="Vector_61" d="M49.1594 51.3765L46.2829 53.4664L45.238 52.0281L49.1594 51.3765Z" fill="#FFCC00"/>
</g>
</g>
</g>
</g>
</g>
</g>
</g>
</g>
<defs>
<filter id="filter0_dd_353_26898" x="0.111084" y="0" width="70" height="70" filterUnits="userSpaceOnUse" color-interpolation-filters="sRGB">
<feFlood flood-opacity="0" result="BackgroundImageFix"/>
<feColorMatrix in="SourceAlpha" type="matrix" values="0 0 0 0 0 0 0 0 0 0 0 0 0 0 0 0 0 0 127 0" result="hardAlpha"/>
<feOffset dy="1"/>
<feGaussianBlur stdDeviation="1"/>
<feColorMatrix type="matrix" values="0 0 0 0 0.0431373 0 0 0 0 0.0431373 0 0 0 0 0.0431373 0 0 0 0.06 0"/>
<feBlend mode="normal" in2="BackgroundImageFix" result="effect1_dropShadow_353_26898"/>
<feColorMatrix in="SourceAlpha" type="matrix" values="0 0 0 0 0 0 0 0 0 0 0 0 0 0 0 0 0 0 127 0" result="hardAlpha"/>
<feOffset dy="1"/>
<feGaussianBlur stdDeviation="1.5"/>
<feColorMatrix type="matrix" values="0 0 0 0 0.0431373 0 0 0 0 0.0431373 0 0 0 0 0.0431373 0 0 0 0.1 0"/>
<feBlend mode="normal" in2="effect1_dropShadow_353_26898" result="effect2_dropShadow_353_26898"/>
<feBlend mode="normal" in="SourceGraphic" in2="effect2_dropShadow_353_26898" result="shape"/>
</filter>
</defs>
</svg>
