<svg width="64" height="64" viewBox="0 0 64 64" fill="none" xmlns="http://www.w3.org/2000/svg">
<path d="M32 57C45.8071 57 57 45.8071 57 32C57 18.1929 45.8071 7 32 7C18.1929 7 7 18.1929 7 32C7 45.8071 18.1929 57 32 57Z" stroke="#0B0B0B" stroke-miterlimit="10" stroke-linecap="round"/>
<path d="M32 57C39.8369 57 46.1901 45.8071 46.1901 32C46.1901 18.1929 39.8369 7 32 7C24.1631 7 17.8101 18.1929 17.8101 32C17.8101 45.8071 24.1631 57 32 57Z" stroke="#0B0B0B" stroke-miterlimit="10" stroke-linecap="round"/>
<path d="M32 7V57" stroke="#0B0B0B" stroke-miterlimit="10" stroke-linecap="round"/>
<path d="M7 32H57" stroke="#0B0B0B" stroke-miterlimit="10" stroke-linecap="round"/>
<path d="M10.3501 19.5H53.6501" stroke="#0B0B0B" stroke-miterlimit="10" stroke-linecap="round"/>
<path d="M10.3501 44.5H53.6501" stroke="#0B0B0B" stroke-miterlimit="10" stroke-linecap="round"/>
<path d="M41.3103 17.6904C41.3103 21.0404 36.4602 27.4004 35.2502 27.4004C34.0402 27.4004 29.1803 21.0404 29.1803 17.6904C29.1471 16.8732 29.2794 16.0578 29.5692 15.293C29.859 14.5282 30.3005 13.8297 30.8669 13.2397C31.4334 12.6498 32.1132 12.1805 32.8656 11.8599C33.618 11.5392 34.4274 11.374 35.2452 11.374C36.0631 11.374 36.8726 11.5392 37.625 11.8599C38.3774 12.1805 39.0572 12.6498 39.6237 13.2397C40.1901 13.8297 40.6314 14.5282 40.9213 15.293C41.2111 16.0578 41.3435 16.8732 41.3103 17.6904V17.6904Z" fill="#BDEA09"/>
<path d="M24.58 31.7202C24.58 35.0702 19.7199 41.4302 18.5099 41.4302C17.2999 41.4302 12.4399 35.0702 12.4399 31.7202C12.4399 30.1104 13.0794 28.5666 14.2178 27.4282C15.3561 26.2899 16.9 25.6504 18.5099 25.6504C20.1198 25.6504 21.6637 26.2899 22.802 27.4282C23.9403 28.5666 24.58 30.1104 24.58 31.7202Z" fill="#9E62FF"/>
<path d="M50.1501 40.6406C50.1501 43.9906 45.3001 50.3506 44.0901 50.3506C42.8801 50.3506 38.0201 43.9906 38.0201 40.6406C37.9869 39.8234 38.1192 39.0079 38.4091 38.2432C38.6989 37.4784 39.1403 36.7804 39.7068 36.1904C40.2732 35.6005 40.9531 35.1312 41.7054 34.8105C42.4578 34.4899 43.2672 34.3242 44.0851 34.3242C44.9029 34.3242 45.7125 34.4899 46.4648 34.8105C47.2172 35.1312 47.897 35.6005 48.4635 36.1904C49.03 36.7804 49.4714 37.4784 49.7612 38.2432C50.0511 39.0079 50.1833 39.8234 50.1501 40.6406V40.6406Z" fill="#00C5A1"/>
<path d="M18.4999 34.2002C19.969 34.2002 21.1599 33.0091 21.1599 31.54C21.1599 30.071 19.969 28.8799 18.4999 28.8799C17.0308 28.8799 15.8398 30.071 15.8398 31.54C15.8398 33.0091 17.0308 34.2002 18.4999 34.2002Z" stroke="#0B0B0B" stroke-miterlimit="10" stroke-linecap="round"/>
<path d="M35.24 20.0898C36.7091 20.0898 37.9 18.8988 37.9 17.4297C37.9 15.9606 36.7091 14.7695 35.24 14.7695C33.7709 14.7695 32.5801 15.9606 32.5801 17.4297C32.5801 18.8988 33.7709 20.0898 35.24 20.0898Z" stroke="#0B0B0B" stroke-miterlimit="10" stroke-linecap="round"/>
<path d="M44.08 43.0303C45.549 43.0303 46.7399 41.8392 46.7399 40.3701C46.7399 38.901 45.549 37.71 44.08 37.71C42.6109 37.71 41.4199 38.901 41.4199 40.3701C41.4199 41.8392 42.6109 43.0303 44.08 43.0303Z" stroke="#0B0B0B" stroke-miterlimit="10" stroke-linecap="round"/>
</svg>
