<svg width="64" height="64" viewBox="0 0 64 64" fill="none" xmlns="http://www.w3.org/2000/svg">
<path d="M55.1683 12.8739L50.2884 17.7543L46.2884 13.7543L51.1683 8.87395C51.3057 8.7459 51.4045 8.58178 51.4529 8.40031C51.5014 8.21885 51.4975 8.02756 51.4422 7.84807C51.3869 7.66858 51.2821 7.50839 51.14 7.38566C50.9978 7.26294 50.8241 7.18272 50.6385 7.15422C48.9545 6.81869 47.2073 7.03392 45.6551 7.76799C44.1029 8.50205 42.8279 9.7159 42.0189 11.2304C41.2098 12.7449 40.9096 14.4793 41.1624 16.1777C41.4152 17.876 42.2076 19.4479 43.4227 20.6611C44.6378 21.8742 46.2112 22.6644 47.91 22.9145C49.6087 23.1646 51.3426 22.8617 52.8558 22.0502C54.369 21.2387 55.5812 19.962 56.3128 18.4086C57.0444 16.8552 57.2565 15.1076 56.9183 13.4242C56.8978 13.2304 56.821 13.0467 56.6976 12.8959C56.5742 12.7451 56.4098 12.6335 56.2239 12.5751C56.038 12.5167 55.8387 12.5142 55.6512 12.5673C55.4637 12.6204 55.2959 12.7267 55.1683 12.8739Z" fill="#00C5A1"/>
<path d="M13.9654 44.7642L19.2266 50.0254L48.9748 20.2772L43.7136 15.016L13.9654 44.7642Z" fill="#00C5A1"/>
<path d="M8.9186 51.0931L13.7887 46.2132L17.7887 50.2132L12.9088 55.0833C12.7714 55.2114 12.6726 55.3755 12.6242 55.557C12.5757 55.7384 12.5796 55.9297 12.6349 56.1092C12.6902 56.2887 12.795 56.4489 12.9372 56.5716C13.0793 56.6943 13.253 56.7746 13.4386 56.8031C15.123 57.1382 16.8707 56.9227 18.423 56.1878C19.9753 55.453 21.2498 54.2377 22.0582 52.7225C22.8667 51.2072 23.1658 49.4723 22.9118 47.7738C22.6578 46.0752 21.8639 44.5033 20.6476 43.2909C19.4313 42.0784 17.8572 41.2899 16.1579 41.0413C14.4585 40.7928 12.7242 41.0972 11.2116 41.9105C9.69891 42.7237 8.48832 44.0024 7.75844 45.557C7.02855 47.1116 6.81831 48.86 7.15883 50.5433C7.17747 50.7393 7.25354 50.9255 7.37758 51.0784C7.50162 51.2314 7.66812 51.3444 7.8561 51.4032C8.04407 51.4619 8.24516 51.4636 8.43422 51.4085C8.62329 51.3534 8.79164 51.2437 8.9186 51.0931Z" fill="#00C5A1"/>
<path d="M47.9985 21.2642C48.976 21.4177 49.9761 21.3375 50.9165 21.0298C51.8569 20.7221 52.711 20.1957 53.4087 19.4941" stroke="#0B0B0B" stroke-linecap="round" stroke-linejoin="round"/>
<path d="M15.0184 11.6035C14.9782 11.4938 14.9048 11.3998 14.8084 11.3339L9.95831 8.03365C9.76137 7.94477 9.5408 7.92232 9.32989 7.96919C9.11897 8.01606 8.92914 8.12998 8.78838 8.2939L8.36846 8.71382C8.20672 8.85392 8.09397 9.04213 8.04717 9.25093C8.00037 9.45973 8.02174 9.67776 8.10821 9.87349L11.4085 14.7338C11.4759 14.833 11.5742 14.9068 11.6883 14.9438L14.3284 15.9438L15.7381 17.3637L34.0481 35.6635L35.7186 33.9936L17.4085 15.6938L15.9983 14.2739L15.0184 11.6035Z" fill="#9E62FF"/>
<path d="M37.4785 32.9341L37.3584 33.0542L35.8086 31.4941C36.1839 31.1189 36.3946 30.6098 36.3946 30.0791C36.3946 29.5484 36.1839 29.0393 35.8086 28.6641C35.4333 28.2888 34.9243 28.0781 34.3936 28.0781C33.8629 28.0781 33.3538 28.2888 32.9785 28.6641L28.7383 32.9141C28.4107 33.2967 28.2399 33.7891 28.2593 34.2925C28.2787 34.7958 28.4871 35.2732 28.8433 35.6294C29.1995 35.9856 29.6769 36.1944 30.1802 36.2139C30.6836 36.2333 31.176 36.062 31.5586 35.7344L33.1187 37.2944L32.9986 37.4141C32.5626 37.8525 32.3179 38.4461 32.3179 39.0645C32.3179 39.6828 32.5626 40.2759 32.9986 40.7144L47.5987 55.3145C48.0371 55.7505 48.6302 55.9951 49.2486 55.9951C49.8669 55.9951 50.46 55.7505 50.8985 55.3145L55.3784 50.8345C55.8145 50.396 56.0591 49.8024 56.0591 49.1841C56.0591 48.5657 55.8145 47.9726 55.3784 47.5342L40.7783 32.9341C40.3399 32.4981 39.7468 32.2534 39.1284 32.2534C38.5101 32.2534 37.917 32.4981 37.4785 32.9341V32.9341Z" fill="#3F7DFF"/>
<path d="M35.2783 39.4434L48.8486 53.0137" stroke="#0B0B0B" stroke-linecap="round" stroke-linejoin="round"/>
<path d="M37.3984 37.3145L50.9688 50.8848" stroke="#0B0B0B" stroke-linecap="round" stroke-linejoin="round"/>
<path d="M39.5083 35.2031L53.0786 48.7729" stroke="#0B0B0B" stroke-linecap="round" stroke-linejoin="round"/>
</svg>
